<?xml version="1.0" encoding="UTF-8" standalone="no"?>
<svg
   xmlns:dc="http://purl.org/dc/elements/1.1/"
   xmlns:cc="http://creativecommons.org/ns#"
   xmlns:rdf="http://www.w3.org/1999/02/22-rdf-syntax-ns#"
   xmlns:svg="http://www.w3.org/2000/svg"
   xmlns="http://www.w3.org/2000/svg"
   xmlns:sodipodi="http://sodipodi.sourceforge.net/DTD/sodipodi-0.dtd"
   xmlns:inkscape="http://www.inkscape.org/namespaces/inkscape"
   width="6.4in"
   height="5.68889in"
   viewBox="0 0 576 512"
   version="1.1"
   id="svg3851"
   sodipodi:docname="star-three-quarter.svg"
   inkscape:version="0.92.5 (2060ec1f9f, 2020-04-08)">
  <metadata
     id="metadata3857">
    <rdf:RDF>
      <cc:Work
         rdf:about="">
        <dc:format>image/svg+xml</dc:format>
        <dc:type
           rdf:resource="http://purl.org/dc/dcmitype/StillImage" />
        <dc:title></dc:title>
      </cc:Work>
    </rdf:RDF>
  </metadata>
  <defs
     id="defs3855" />
  <sodipodi:namedview
     pagecolor="#ffffff"
     bordercolor="#666666"
     borderopacity="1"
     objecttolerance="10"
     gridtolerance="10"
     guidetolerance="10"
     inkscape:pageopacity="0"
     inkscape:pageshadow="2"
     inkscape:window-width="640"
     inkscape:window-height="480"
     id="namedview3853"
     showgrid="false"
     inkscape:zoom="0.43212882"
     inkscape:cx="307.2"
     inkscape:cy="273.06672"
     inkscape:window-x="423"
     inkscape:window-y="178"
     inkscape:window-maximized="0"
     inkscape:current-layer="svg3851" />
  <path
     id="Selection"
     fill="none"
     stroke="black"
     stroke-width="1"
     d="M 280.00,0.23            C 283.32,0.00 285.67,-0.01 289.00,0.23              312.96,0.11 318.23,18.96 327.25,37.00              327.25,37.00 365.75,115.00 365.75,115.00              365.75,115.00 376.75,138.00 376.75,138.00              377.97,140.43 380.86,146.81 382.63,148.41              384.88,150.42 390.04,150.72 393.00,151.13              393.00,151.13 415.00,154.41 415.00,154.41              415.00,154.41 506.00,167.59 506.00,167.59              525.99,170.80 548.15,169.85 554.71,194.00              555.69,197.60 556.11,201.27 555.96,205.00              555.27,222.12 540.13,232.87 529.00,244.00              529.00,244.00 508.00,264.01 508.00,264.01              508.00,264.01 479.00,292.96 479.00,292.96              479.00,292.96 467.00,304.00 467.00,304.00              467.00,304.00 450.00,321.00 450.00,321.00              447.88,323.13 443.22,327.42 442.11,330.00              440.90,332.81 442.25,337.97 442.75,341.00              442.75,341.00 447.08,366.00 447.08,366.00              447.08,366.00 460.08,442.00 460.08,442.00              460.08,442.00 465.99,479.00 465.99,479.00              466.33,494.06 457.18,507.99 442.00,511.47              439.03,512.15 434.16,512.03 431.00,512.00              419.53,511.86 406.17,502.51 396.00,497.26              396.00,497.26 358.00,477.26 358.00,477.26              358.00,477.26 325.00,460.00 325.00,460.00              325.00,460.00 300.00,446.76 300.00,446.76              297.19,445.33 290.90,441.78 288.00,441.78              285.13,441.78 278.74,445.33 276.00,446.78              276.00,446.78 251.00,460.14 251.00,460.14              251.00,460.14 218.00,477.26 218.00,477.26              218.00,477.26 180.00,497.26 180.00,497.26              173.15,500.79 156.74,510.49 150.00,511.83              150.00,511.83 140.00,511.83 140.00,511.83              121.95,511.78 109.62,496.43 110.01,479.00              110.01,479.00 115.75,443.00 115.75,443.00              115.75,443.00 128.08,371.00 128.08,371.00              128.08,371.00 132.92,343.00 132.92,343.00              133.37,340.32 134.86,333.31 134.23,331.00              133.40,327.91 129.27,324.28 127.00,322.00              127.00,322.00 109.00,304.00 109.00,304.00              109.00,304.00 97.00,292.96 97.00,292.96              97.00,292.96 67.00,263.01 67.00,263.01              67.00,263.01 41.00,238.00 41.00,238.00              37.01,234.01 27.66,225.18 24.97,221.00              17.43,209.28 18.60,192.75 27.38,182.01              37.00,170.24 53.12,170.06 67.00,168.13              67.00,168.13 155.00,155.27 155.00,155.27              155.00,155.27 183.00,151.25 183.00,151.25              186.50,150.67 191.61,150.49 194.04,147.69              194.04,147.69 210.25,115.00 210.25,115.00              210.25,115.00 247.25,40.00 247.25,40.00              247.25,40.00 255.75,23.00 255.75,23.00              261.81,10.88 265.82,3.84 280.00,0.23 Z            M 487.00,214.00            C 487.00,214.00 453.00,209.42 453.00,209.42              453.00,209.42 413.00,203.73 413.00,203.73              413.00,203.73 380.00,199.00 380.00,199.00              380.00,199.00 380.00,425.00 380.00,425.00              380.00,425.00 381.02,432.61 381.02,432.61              381.02,432.61 389.00,438.00 389.00,438.00              389.00,438.00 411.00,449.00 411.00,449.00              411.00,449.00 406.08,417.00 406.08,417.00              406.08,417.00 394.59,350.00 394.59,350.00              394.59,350.00 389.92,323.00 389.92,323.00              389.47,320.30 388.08,314.71 389.19,312.28              390.01,310.48 394.39,306.59 396.00,305.00              396.00,305.00 410.00,291.00 410.00,291.00              410.00,291.00 434.00,267.99 434.00,267.99              434.00,267.99 463.00,239.04 463.00,239.04              469.72,232.61 483.23,221.97 487.00,214.00 Z            M 412.00,449.00            C 412.00,449.00 411.00,449.00 411.00,449.00              411.00,449.00 412.00,450.00 412.00,450.00              412.00,450.00 412.00,449.00 412.00,449.00 Z" />
  <path
     style="stroke-width:2.31412482"
     d="m 138.96314,542.56346 c -8.17969,-3.33699 -17.19909,-14.29916 -18.80407,-22.85448 -1.0618,-5.65986 2.6382,-33.1266 11.57709,-85.9418 7.22569,-42.69285 13.10943,-78.99101 13.07496,-80.66257 -0.0345,-1.67154 -26.61266,-29.13916 -59.062648,-61.03911 -47.164725,-46.3653 -59.459766,-59.70747 -61.292084,-66.51219 -4.023679,-14.9428 3.901945,-32.89437 16.914973,-38.31247 4.0375,-1.68105 41.184985,-7.89595 82.549969,-13.81088 41.36498,-5.91494 77.17464,-11.5348 79.57704,-12.48857 2.76299,-1.09694 18.06861,-28.90078 41.65424,-75.668161 39.69494,-78.7101135 43.67609,-84.3475791 59.56584,-84.3475791 10.931,0 24.73531,6.86389 29.55737,14.6967671 4.34488,7.057783 49.82019,97.853243 64.70091,129.181103 5.86413,12.34558 8.60575,15.71178 13.66567,16.77899 3.48142,0.73427 39.13255,6.06888 79.22476,11.85468 44.1918,6.37742 76.07213,12.07186 80.96382,14.46169 16.15451,7.89228 22.76434,26.74566 15.06514,42.97056 -1.91314,4.03162 -28.02662,31.162 -58.02999,60.28978 -30.00335,29.12777 -55.97343,55.14453 -57.71129,57.815 -2.75448,4.23272 -1.53359,14.3529 9.51936,78.90744 13.90859,81.23284 14.68093,89.74813 9.11638,100.50876 -8.96353,17.33358 -29.10708,20.9438 -51.33476,9.20045 -92.91884,-49.09096 -128.1694,-66.8979 -132.4309,-66.8979 -2.80292,0 -36.74435,16.6617 -75.42542,37.026 -72.26207,38.04358 -78.78264,40.49625 -92.63636,34.84449 z m 289.30479,-134.4453 -12.48968,-72.80149 53.24044,-52.87782 c 29.28227,-29.0828 52.59374,-53.52457 51.80331,-54.31501 -1.45853,-1.45853 -102.12629,-16.34863 -111.6848,-16.51967 l -5.20678,-0.0932 v 124.60407 c 0,141.62214 -2.40257,126.46254 21.98418,138.71516 7.63662,3.83687 14.10036,6.77662 14.36389,6.53278 0.26351,-0.24387 -5.14124,-33.20404 -12.01056,-73.24485 z"
     id="path3859"
     inkscape:connector-curvature="0"
     transform="scale(0.9374999)" />
</svg>
