<?xml version="1.0" encoding="UTF-8" standalone="no"?>
<svg
   xmlns:dc="http://purl.org/dc/elements/1.1/"
   xmlns:cc="http://creativecommons.org/ns#"
   xmlns:rdf="http://www.w3.org/1999/02/22-rdf-syntax-ns#"
   xmlns:svg="http://www.w3.org/2000/svg"
   xmlns="http://www.w3.org/2000/svg"
   xmlns:sodipodi="http://sodipodi.sourceforge.net/DTD/sodipodi-0.dtd"
   xmlns:inkscape="http://www.inkscape.org/namespaces/inkscape"
   width="6.4in"
   height="5.68889in"
   viewBox="0 0 576 512"
   version="1.1"
   id="svg3777"
   sodipodi:docname="star-one-quarter.svg"
   inkscape:version="0.92.5 (2060ec1f9f, 2020-04-08)">
  <metadata
     id="metadata3783">
    <rdf:RDF>
      <cc:Work
         rdf:about="">
        <dc:format>image/svg+xml</dc:format>
        <dc:type
           rdf:resource="http://purl.org/dc/dcmitype/StillImage" />
        <dc:title></dc:title>
      </cc:Work>
    </rdf:RDF>
  </metadata>
  <defs
     id="defs3781" />
  <sodipodi:namedview
     pagecolor="#ffffff"
     bordercolor="#666666"
     borderopacity="1"
     objecttolerance="10"
     gridtolerance="10"
     guidetolerance="10"
     inkscape:pageopacity="0"
     inkscape:pageshadow="2"
     inkscape:window-width="1920"
     inkscape:window-height="1016"
     id="namedview3779"
     showgrid="false"
     inkscape:zoom="1.5344235"
     inkscape:cx="307.2"
     inkscape:cy="273.06672"
     inkscape:window-x="0"
     inkscape:window-y="27"
     inkscape:window-maximized="1"
     inkscape:current-layer="svg3777" />
  <path
     id="Selection #1"
     fill="none"
     stroke="black"
     stroke-width="1"
     d="M 280.00,0.23            C 283.32,0.00 285.67,-0.01 289.00,0.23              312.96,0.11 318.23,18.96 327.25,37.00              327.25,37.00 365.75,115.00 365.75,115.00              365.75,115.00 376.75,138.00 376.75,138.00              377.97,140.43 380.86,146.81 382.63,148.41              384.88,150.42 390.04,150.72 393.00,151.13              393.00,151.13 415.00,154.41 415.00,154.41              415.00,154.41 506.00,167.59 506.00,167.59              525.99,170.80 548.15,169.85 554.71,194.00              555.69,197.60 556.11,201.27 555.96,205.00              555.27,222.12 540.13,232.87 529.00,244.00              529.00,244.00 508.00,264.01 508.00,264.01              508.00,264.01 479.00,292.96 479.00,292.96              479.00,292.96 467.00,304.00 467.00,304.00              467.00,304.00 450.00,321.00 450.00,321.00              447.88,323.13 443.22,327.42 442.11,330.00              440.90,332.81 442.25,337.97 442.75,341.00              442.75,341.00 447.08,366.00 447.08,366.00              447.08,366.00 460.08,442.00 460.08,442.00              460.08,442.00 465.99,479.00 465.99,479.00              466.33,494.06 457.18,507.99 442.00,511.47              439.03,512.15 434.16,512.03 431.00,512.00              419.53,511.86 406.17,502.51 396.00,497.26              396.00,497.26 358.00,477.26 358.00,477.26              358.00,477.26 325.00,460.00 325.00,460.00              325.00,460.00 300.00,446.76 300.00,446.76              297.19,445.33 290.90,441.78 288.00,441.78              285.13,441.78 278.74,445.33 276.00,446.78              276.00,446.78 251.00,460.14 251.00,460.14              251.00,460.14 218.00,477.26 218.00,477.26              218.00,477.26 180.00,497.26 180.00,497.26              173.15,500.79 156.74,510.49 150.00,511.83              150.00,511.83 140.00,511.83 140.00,511.83              121.95,511.78 109.62,496.43 110.01,479.00              110.01,479.00 115.75,443.00 115.75,443.00              115.75,443.00 128.08,371.00 128.08,371.00              128.08,371.00 132.92,343.00 132.92,343.00              133.37,340.32 134.86,333.31 134.23,331.00              133.40,327.91 129.27,324.28 127.00,322.00              127.00,322.00 109.00,304.00 109.00,304.00              109.00,304.00 97.00,292.96 97.00,292.96              97.00,292.96 67.00,263.01 67.00,263.01              67.00,263.01 41.00,238.00 41.00,238.00              37.01,234.01 27.66,225.18 24.97,221.00              17.43,209.28 18.60,192.75 27.38,182.01              37.00,170.24 53.12,170.06 67.00,168.13              67.00,168.13 155.00,155.27 155.00,155.27              155.00,155.27 183.00,151.25 183.00,151.25              186.50,150.67 191.61,150.49 194.04,147.69              194.04,147.69 210.25,115.00 210.25,115.00              210.25,115.00 247.25,40.00 247.25,40.00              247.25,40.00 255.75,23.00 255.75,23.00              261.81,10.88 265.82,3.84 280.00,0.23 Z            M 289.00,71.00            C 289.00,71.00 287.00,71.00 287.00,71.00              287.00,71.00 267.25,111.00 267.25,111.00              267.25,111.00 241.75,163.00 241.75,163.00              241.75,163.00 229.75,187.00 229.75,187.00              225.58,195.26 224.02,193.47 224.00,203.00              224.00,203.00 224.00,418.00 224.00,418.00              224.00,418.00 267.00,396.00 267.00,396.00              267.00,396.00 288.00,385.99 288.00,385.99              288.00,385.99 299.00,390.75 299.00,390.75              299.00,390.75 322.00,402.75 322.00,402.75              322.00,402.75 384.00,435.26 384.00,435.26              384.00,435.26 411.00,449.00 411.00,449.00              411.00,449.00 406.08,417.00 406.08,417.00              406.08,417.00 394.59,350.00 394.59,350.00              394.59,350.00 389.92,323.00 389.92,323.00              389.47,320.30 388.08,314.71 389.19,312.28              390.01,310.48 394.39,306.59 396.00,305.00              396.00,305.00 410.00,291.00 410.00,291.00              410.00,291.00 434.00,267.99 434.00,267.99              434.00,267.99 463.00,239.04 463.00,239.04              469.72,232.61 483.23,221.97 487.00,214.00              487.00,214.00 452.00,209.27 452.00,209.27              452.00,209.27 388.00,200.00 388.00,200.00              388.00,200.00 362.00,196.27 362.00,196.27              362.00,196.27 350.39,193.41 350.39,193.41              350.39,193.41 343.75,182.00 343.75,182.00              343.75,182.00 331.75,158.00 331.75,158.00              331.75,158.00 307.75,109.00 307.75,109.00              307.75,109.00 289.00,71.00 289.00,71.00 Z            M 412.00,449.00            C 412.00,449.00 411.00,449.00 411.00,449.00              411.00,449.00 412.00,450.00 412.00,450.00              412.00,450.00 412.00,449.00 412.00,449.00 Z" />
  <path
     style="stroke-width:0.65171057"
     d="m 142.40546,544.32526 c -12.15597,-3.06133 -21.82871,-14.1063 -23.75739,-27.12777 -0.67721,-4.57211 -0.5283,-6.10861 2.30531,-23.78744 2.56264,-15.98823 16.32905,-96.99445 21.59413,-127.06708 2.07956,-11.87792 2.04879,-13.11896 -0.41757,-16.84248 -1.10664,-1.67073 -9.2208,-10.00588 -18.03145,-18.52255 C 115.28783,322.46126 97.931681,305.5219 85.529272,293.33492 73.12686,281.14793 55.200694,263.55175 45.693347,254.23228 31.687697,240.50342 28.014495,236.53567 26.337601,233.32446 c -7.079413,-13.5569 -4.756794,-30.15731 5.698784,-40.7308 6.370363,-6.4422 14.250623,-9.20879 33.248665,-11.67289 5.914273,-0.76709 30.548932,-4.28712 54.74369,-7.82228 24.19475,-3.53516 52.49528,-7.64807 62.89006,-9.13981 11.66641,-1.67422 19.97603,-3.18191 21.7122,-3.93941 l 2.81258,-1.22717 12.41709,-25.27149 c 6.8294,-13.89932 22.90034,-46.38691 35.7132,-72.194648 21.19731,-42.695732 23.63217,-47.290411 27.02617,-50.999554 2.78835,-3.047262 4.99063,-4.6895697 8.72322,-6.5051853 4.77523,-2.3227775 5.33454,-2.438929 12.81371,-2.6610483 20.56349,-0.61070253 28.08917,5.1685257 40.58247,31.1646686 2.8423,5.914273 14.70049,30.109027 26.35153,53.76612 11.65104,23.657097 24.43575,49.668737 28.41048,57.803667 6.15071,12.58843 7.53169,14.94844 9.27462,15.84974 2.08391,1.07763 19.64836,3.7662 108.16439,16.55658 24.91163,3.59968 47.49132,7.15762 50.17707,7.90652 12.86711,3.58793 20.62127,11.15957 23.82075,23.26009 1.31238,4.96347 1.27309,13.88069 -0.0811,18.41532 -2.94399,9.85785 -6.40734,13.93604 -35.2998,41.56645 -13.17437,12.5989 -37.64263,36.48112 -54.37391,53.0716 -34.25555,33.96728 -31.87724,30.7954 -30.22217,40.30625 15.02767,86.3563 25.11015,147.51553 25.11847,152.36598 0.0207,12.03874 -7.60655,23.99421 -18.65485,29.24103 -4.73729,2.24972 -5.51917,2.41502 -12.58354,2.66033 -11.70641,0.4065 -15.60911,-0.91882 -36.66562,-12.45135 -6.20006,-3.39574 -23.44352,-12.54932 -38.31882,-20.34128 -14.87529,-7.79197 -38.0436,-19.95607 -51.48513,-27.03134 -13.44153,-7.07526 -25.85185,-13.3912 -27.57849,-14.0354 -2.95695,-1.10324 -3.33558,-1.10871 -6.5171,-0.0941 -1.85778,0.59249 -8.94989,4.03629 -15.76027,7.6529 -6.81037,3.61661 -23.08684,12.16097 -36.16993,18.98745 -32.20537,16.80409 -47.1758,24.68634 -64.44183,33.92998 -8.02228,4.29485 -17.11364,9.01059 -20.20302,10.4794 -5.55046,2.63892 -5.71366,2.67243 -13.76345,2.82634 -5.04782,0.0965 -9.42661,-0.16667 -11.51222,-0.6919 z m 297.05903,-66.47899 c -0.37548,-0.75938 -1.74631,-8.41916 -3.04629,-17.02174 -1.86788,-12.36061 -11.14046,-67.21165 -20.17343,-119.33403 -0.70016,-4.04008 -0.83284,-6.4518 -0.41536,-7.54985 0.33739,-0.8874 10.82374,-11.5598 23.30299,-23.71643 12.47926,-12.15665 31.5094,-30.75444 42.2892,-41.32845 10.77979,-10.574 22.95958,-22.45143 27.0662,-26.39428 6.87835,-6.60403 11.69121,-12.50252 11.69121,-14.32836 0,-0.46775 -3.33365,-1.16517 -8.96102,-1.87472 -27.27255,-3.43875 -124.0456,-17.63383 -129.97196,-19.06483 l -6.96161,-1.68097 -3.23651,-5.63885 c -3.69092,-6.43053 -21.60628,-42.2685 -45.74162,-91.50171 -14.94308,-30.482093 -16.68281,-33.726021 -18.08736,-33.726021 -1.39785,0 -2.83428,2.603472 -14.29292,25.905491 -32.98557,67.07861 -49.35329,99.92657 -51.86854,104.0936 l -2.74327,4.54481 -0.1732,118.79141 c -0.0953,65.33528 -0.0361,118.79141 0.13151,118.79141 0.16759,0 15.46447,-7.62501 33.99305,-16.94447 18.5286,-9.31946 34.15935,-16.94306 34.73501,-16.94132 2.16745,0.007 14.68578,6.24544 57.09428,28.45475 24.01525,12.57678 50.62631,26.44543 59.13569,30.81924 8.50938,4.37381 15.6876,8.29571 15.95162,8.71534 0.79328,1.26089 1.04898,-1.51952 0.28233,-3.07002 z"
     id="path3785"
     inkscape:connector-curvature="0"
     transform="scale(0.9374999)" />
</svg>
